<svg width="66" height="60" viewBox="0 0 66 60" fill="none" xmlns="http://www.w3.org/2000/svg">
<path d="M63.0696 34.8525C61.7381 33.5951 60.3879 33.0661 60.1259 32.971L55.6768 31.1172L52.5607 29.0609V28.0148C54.888 26.7977 56.5829 24.5323 57.0132 21.8483C58.9683 21.5883 60.4822 19.911 60.4822 17.8857C60.4822 16.8464 60.0833 15.8986 59.4312 15.1868V11.3534C59.4312 5.18537 54.4131 0.167304 48.2451 0.167304H47.3997C42.3217 0.167304 37.8917 3.57739 36.5904 8.47093C35.614 8.20667 34.588 8.06294 33.529 8.06294H32.6384C31.523 8.06294 30.4448 8.22279 29.4219 8.51489C28.1359 3.59737 23.6939 0.167175 18.6004 0.167175H17.755C11.587 0.167175 6.56893 5.18524 6.56893 11.3533V15.1868C5.91667 15.8986 5.51783 16.8464 5.51783 17.8857C5.51783 19.911 7.03171 21.5884 8.98683 21.8483C9.41699 24.5323 11.112 26.7977 13.4392 28.0148V29.0609L10.3233 31.1171L5.87413 32.9709C5.61206 33.0659 4.26203 33.595 2.93043 34.8524C1.59354 36.1147 0 38.3845 0 42.0285V48.3621C0 48.9377 0.466641 49.4058 1.04208 49.4058H14.128C13.9339 50.2152 13.8186 51.1154 13.8186 52.1155V58.7892C13.8186 59.3649 14.2853 59.833 14.8607 59.833H27.2423H29.9814H36.2261H36.229H38.7577H39.3453C39.921 59.833 40.3874 59.3666 40.3874 58.7909C40.3874 58.2152 39.921 57.7488 39.3453 57.7488H38.7577H37.1137L35.8554 49.9485L36.3473 48.6384L37.0907 49.1856C37.2714 49.3187 37.4883 49.3885 37.7083 49.3885C37.7917 49.3885 37.8754 49.3784 37.9579 49.3582C38.2581 49.2841 38.5102 49.0804 38.6453 48.8022L41.4756 42.9849L45.2516 44.5585C45.2743 44.5679 45.2973 44.5765 45.3206 44.5844C45.3684 44.6004 50.0972 46.2574 50.0972 52.1155V57.7488H45.7741V51.8118C45.7741 51.2361 45.3077 50.7697 44.732 50.7697C44.1563 50.7697 43.6899 51.2361 43.6899 51.8118V57.7488H42.5877C42.012 57.7488 41.5456 58.2152 41.5456 58.7909C41.5456 59.3666 42.012 59.833 42.5877 59.833H51.1394C51.7151 59.833 52.1815 59.3533 52.1815 58.7778V52.1152C52.1815 51.1152 52.0663 50.2149 51.8721 49.4055H64.9582C65.5339 49.4055 66.0003 48.9265 66.0003 48.351V42.0282C66 38.3845 64.4065 36.1147 63.0696 34.8525ZM55.037 20.5024C55.037 24.0255 52.1707 26.8918 48.6477 26.8918H47.0353C46.8102 26.8918 46.5857 26.8781 46.3627 26.8549C46.3651 26.7957 46.3671 26.7362 46.3671 26.6764C46.3671 25.5881 45.9463 24.5967 45.2595 23.8549V19.7932C45.2595 17.9392 44.8255 16.1851 44.0562 14.6249C46.3417 14.072 49.0232 13.0142 51.0984 10.9859C51.7428 12.3611 52.9464 14.1522 55.0369 14.9451V20.5024H55.037ZM50.4765 28.7751V30.9051L47.7987 33.6847L45.2047 31.1578C45.2051 31.1463 45.2065 31.1351 45.2065 31.1236V29.5548C45.2065 29.5545 45.2065 29.5542 45.2065 29.5537V29.5535C45.4058 29.3461 45.584 29.1184 45.737 28.8733C46.1656 28.9393 46.5997 28.9759 47.0353 28.9759H48.6477C49.2756 28.976 49.8871 28.9054 50.4765 28.7751ZM44.2829 26.6765C44.2829 27.2023 44.0845 27.6813 43.7608 28.0474C43.5667 28.129 43.403 28.2681 43.2897 28.4429C43.1453 28.5316 42.9905 28.6051 42.8257 28.6564V24.6969C43.6691 24.9598 44.2829 25.7479 44.2829 26.6765ZM58.398 17.8856C58.398 18.7176 57.8636 19.4251 57.1212 19.6886V16.0825C57.8638 16.3459 58.398 17.0536 58.398 17.8856ZM38.5833 9.08195C39.6159 5.06007 43.2412 2.25133 47.3996 2.25133H48.245C53.2638 2.25133 57.3469 6.33444 57.3469 11.3533V13.9818C57.2629 13.9632 57.1784 13.9464 57.0924 13.9332C57.0025 13.5533 56.7042 13.247 56.3102 13.1574C53.393 12.4938 52.4958 8.77064 52.4875 8.73583C52.3972 8.33648 52.0811 8.02711 51.6799 7.94512C51.2788 7.86327 50.8667 8.02362 50.6268 8.35543C48.6728 11.0568 45.4151 12.2351 42.9017 12.7488C41.7639 11.2392 40.2707 10.0125 38.5474 9.19345C38.5613 9.15697 38.5735 9.1201 38.5833 9.08195ZM32.6385 10.1467H33.5289V10.147C38.848 10.147 43.1755 14.4744 43.1755 19.7934V22.6335C43.0542 22.6046 42.9311 22.5805 42.8059 22.5624C42.8032 22.5488 42.7996 22.5356 42.7965 22.5221C42.7924 22.5046 42.7881 22.487 42.7831 22.4699C42.7781 22.4527 42.7721 22.4362 42.7663 22.4196C42.7612 22.4051 42.7561 22.3905 42.7503 22.376C42.7433 22.3584 42.7354 22.3412 42.7273 22.3242C42.7212 22.3111 42.7151 22.2979 42.7083 22.285C42.6996 22.2683 42.6903 22.2522 42.6807 22.2361C42.6731 22.2232 42.6658 22.2104 42.6575 22.1979C42.648 22.1832 42.6377 22.169 42.6274 22.1547C42.6178 22.1416 42.6082 22.1283 42.5981 22.1155C42.588 22.103 42.5777 22.091 42.567 22.0789C42.5552 22.0654 42.5433 22.052 42.5308 22.0391C42.5206 22.0286 42.5101 22.0189 42.4995 22.0088C42.4854 21.9956 42.4715 21.9825 42.4568 21.97C42.4461 21.961 42.435 21.9525 42.424 21.9437C42.4089 21.9318 42.3934 21.92 42.3774 21.909C42.3652 21.9004 42.3524 21.8927 42.3396 21.8845C42.3243 21.8747 42.3088 21.8651 42.2929 21.856C42.2779 21.8475 42.2622 21.8399 42.2466 21.8322C42.2323 21.8251 42.2182 21.8179 42.2035 21.8114C42.1846 21.8031 42.1652 21.7958 42.1456 21.7886C42.1334 21.784 42.1213 21.7792 42.1088 21.7751C42.0867 21.7679 42.0642 21.7619 42.0415 21.7561C42.0327 21.7539 42.0241 21.7507 42.0152 21.7488C38.9062 21.0414 37.9539 17.085 37.9452 17.0478C37.8549 16.6485 37.5388 16.3391 37.1378 16.2571C36.7365 16.1749 36.3245 16.3355 36.0846 16.6673C32.4628 21.6743 24.5488 21.7229 24.429 21.7229C24.4268 21.723 24.4257 21.7229 24.424 21.7229C24.3882 21.7229 24.3527 21.7247 24.3176 21.7283C24.3094 21.7291 24.3017 21.7309 24.2934 21.7319C24.2669 21.7353 24.2402 21.7387 24.2144 21.744C24.2047 21.746 24.1953 21.749 24.1858 21.7514C24.1619 21.7569 24.1378 21.7625 24.1146 21.7695C24.1021 21.7734 24.0903 21.7786 24.0781 21.7828C24.0584 21.7898 24.0384 21.7964 24.0192 21.8043C24.0038 21.8109 23.9892 21.8187 23.9742 21.826C23.9589 21.8334 23.9433 21.8401 23.9284 21.848C23.913 21.8564 23.8987 21.866 23.8839 21.875C23.8701 21.8835 23.8559 21.8911 23.8426 21.9001C23.8281 21.9101 23.8144 21.921 23.8005 21.9316C23.7878 21.941 23.7746 21.9499 23.7626 21.9599C23.7492 21.9709 23.7371 21.983 23.7242 21.9945C23.7123 22.0053 23.6998 22.0156 23.6885 22.0268C23.6766 22.0387 23.6659 22.0515 23.6547 22.0638C23.6435 22.0761 23.6317 22.0878 23.6212 22.1007C23.6107 22.1133 23.6014 22.1269 23.5917 22.1399C23.5815 22.1536 23.5706 22.1666 23.5611 22.1808C23.5521 22.194 23.5443 22.2082 23.5358 22.222C23.5268 22.2368 23.5173 22.2511 23.5089 22.2663C23.5012 22.2807 23.4946 22.2956 23.4875 22.3104C23.48 22.326 23.4718 22.3412 23.4649 22.3572C23.4585 22.3723 23.4536 22.388 23.4478 22.4035C23.4417 22.4199 23.435 22.436 23.4297 22.4529C23.4247 22.4687 23.4212 22.4851 23.4171 22.5012C23.4127 22.5184 23.4076 22.5351 23.404 22.5525C23.4033 22.5557 23.4028 22.5591 23.4022 22.5622C23.2632 22.5822 23.1264 22.609 22.9922 22.6425V19.7932C22.9922 14.4741 27.3196 10.1467 32.6385 10.1467ZM33.0602 43.4032L30.2685 40.6842C30.2696 40.6646 30.2714 40.6454 30.2714 40.6257V38.9722C30.2714 38.9712 30.2714 38.9704 30.2714 38.9696V38.0803C30.9095 38.2266 31.5726 38.3065 32.2545 38.3065H33.9534C34.6148 38.3065 35.2588 38.2315 35.8792 38.0937C35.8983 38.0931 35.9173 38.0918 35.9364 38.0909V40.4176L33.0602 43.4032ZM34.6029 47.3547L34.0606 48.7993H32.1188L31.5058 47.3362L33.0418 46.2057L34.6029 47.3547ZM19.0581 38.8277H17.2874L16.7997 37.5289L18.2175 36.4856L19.6101 37.5105L19.0581 38.8277ZM19.1958 42.9687C18.5943 43.2742 17.739 43.7921 16.8888 44.5951C16.8769 44.6062 16.8652 44.6179 16.8533 44.6291L17.453 40.912H18.864L19.1958 42.9687ZM18.2013 33.6849L15.5235 30.9053V28.7752C16.1129 28.9054 16.7244 28.9762 17.3525 28.9762H18.9648C19.4646 28.9762 19.9632 28.9322 20.4527 28.8457C20.5554 29.0129 20.6691 29.1722 20.7936 29.3227V29.5525C20.7936 29.5537 20.7936 29.5547 20.7936 29.5559V31.1239C20.7936 31.1354 20.795 31.1466 20.7953 31.158L18.2013 33.6849ZM22.5628 32.3457C22.8048 32.1101 22.9065 31.7857 22.8693 31.4745L23.7845 32.0784C23.884 32.3963 24.0026 32.7057 24.1359 33.0071L22.2564 36.8705L19.7853 35.0517L22.5628 32.3457ZM21.9245 26.6766C21.9245 25.7477 22.5385 24.9596 23.3818 24.6967V28.6564C22.5385 28.3935 21.9245 27.6054 21.9245 26.6766ZM21.3372 38.7814L22.0285 39.2901C22.2093 39.4233 22.4262 39.493 22.6462 39.493C22.7295 39.493 22.8133 39.4829 22.8957 39.4627C23.196 39.3886 23.448 39.1849 23.5831 38.9067L25.4342 35.1017C26.1916 36.0114 27.1277 36.7661 28.1872 37.315V38.3997L24.8464 40.6043C24.8012 40.6163 24.7561 40.6305 24.7118 40.6488L21.1709 42.1244L20.8278 39.9977L21.3372 38.7814ZM28.2185 40.8762C28.1328 41.2234 28.2272 41.6055 28.5019 41.8731L31.4759 44.7702L28.765 46.7655L26.4634 42.0344L28.2185 40.8762ZM33.9535 36.2223H32.2547C28.5116 36.2223 25.4662 33.1771 25.4662 29.4339V23.762C27.7017 23.5999 32.9901 22.8455 36.5536 19.3119C37.223 20.7679 38.4978 22.7027 40.742 23.5383V29.4338H40.7419C40.7417 33.1771 37.6966 36.2223 33.9535 36.2223ZM8.87868 19.6886C8.13618 19.4251 7.60199 18.7176 7.60199 17.8856C7.60199 17.0536 8.13605 16.3461 8.87868 16.0825V19.6886ZM9.94847 13.1311C9.94692 13.1311 9.9455 13.1311 9.94383 13.1311C9.93996 13.1311 9.93622 13.1317 9.93236 13.1317C9.92849 13.1317 9.92475 13.1311 9.92088 13.1311C9.4282 13.1311 9.01648 13.4734 8.90781 13.9331C8.82183 13.9462 8.73714 13.9631 8.65309 13.9817V11.3531C8.65309 6.33431 12.7362 2.2512 17.755 2.2512H18.6004C22.7588 2.2512 26.3843 5.06007 27.4167 9.08182C27.4328 9.14434 27.4548 9.2035 27.481 9.26022C26.1087 9.93492 24.8872 10.87 23.88 12.0008C22.679 10.7488 22.2607 9.00293 22.2568 8.9863C22.1663 8.58695 21.8504 8.27757 21.4492 8.19559C21.0483 8.11373 20.636 8.27396 20.3961 8.60577C17.1545 13.0869 10.0526 13.131 9.9486 13.131C9.94847 13.1311 9.94847 13.1311 9.94847 13.1311ZM10.963 20.5024V15.1704C13.0131 15.0142 17.6696 14.3179 20.8722 11.2231C21.247 12.0068 21.8099 12.9218 22.6245 13.69C21.5361 15.4691 20.9077 17.5591 20.9077 19.7932V23.8984C20.2446 24.6353 19.8403 25.6093 19.8403 26.6762C19.8403 26.7275 19.8424 26.7782 19.8442 26.8291C19.5535 26.8691 19.2596 26.8916 18.9647 26.8916H17.3523C13.8293 26.8919 10.963 24.0255 10.963 20.5024ZM13.463 31.5423C13.502 31.7265 13.5903 31.9029 13.7307 32.0485L16.6346 35.0629L14.1783 36.8704L12.042 32.4799L13.463 31.5423ZM14.3077 47.3215H8.16505V41.7402C8.16505 41.1645 7.69841 40.6981 7.12297 40.6981C6.54753 40.6981 6.08089 41.1645 6.08089 41.7402V47.3215H2.08416V42.0285C2.08416 36.5556 6.40239 34.9934 6.58131 34.9313C6.60451 34.9234 6.62759 34.9149 6.65027 34.9054L10.1876 33.4316L12.8514 38.9071C12.9868 39.1853 13.2387 39.389 13.5389 39.4631C13.6214 39.4833 13.7051 39.4934 13.7883 39.4934C14.0085 39.4934 14.2253 39.4236 14.406 39.2905L15.0551 38.8128L15.4923 39.9773L14.3077 47.3215ZM29.0938 57.749H27.2421H22.3102V57.7488V51.8118C22.3102 51.2361 21.8435 50.7697 21.2681 50.7697C20.6925 50.7697 20.226 51.2362 20.226 51.8118V57.7488H15.9028V52.1155C15.9028 46.3069 20.4889 44.6504 20.6795 44.5844C20.7027 44.5765 20.7258 44.568 20.7485 44.5585L24.5942 42.9559L27.4382 48.8022C27.5736 49.0804 27.8254 49.2841 28.1257 49.3582C28.2082 49.3783 28.2918 49.3885 28.3751 49.3885C28.5953 49.3885 28.8122 49.3187 28.9928 49.1856L29.7784 48.6074L30.3488 49.9695L29.0938 57.749ZM31.2051 57.7488L32.3128 50.8834H33.895L35.0026 57.7488H31.2051ZM37.3184 46.7654L36.4972 46.1609C36.495 46.1591 36.4926 46.1576 36.4903 46.1558L34.6249 44.7828L37.7289 41.5607C37.8901 41.3933 37.983 41.1861 38.0107 40.9722L39.62 42.034L37.3184 46.7654ZM44.8293 42.1246L41.3331 40.6675L38.024 38.4839C38.0228 38.4833 38.0218 38.4826 38.0208 38.482V37.3153C39.0197 36.7977 39.9076 36.0966 40.6407 35.2556L42.4171 38.907C42.5525 39.1852 42.8044 39.3888 43.1046 39.463C43.1871 39.4832 43.2707 39.4933 43.3541 39.4933C43.5742 39.4933 43.7911 39.4235 43.9717 39.2904L44.663 38.7817L45.1726 39.9981L44.8293 42.1246ZM43.7437 36.8703L41.9717 33.2281C42.1725 32.8059 42.3393 32.3649 42.4719 31.9093L43.1307 31.4745C43.0934 31.7857 43.1953 32.11 43.4372 32.3457L46.2148 35.0517L43.7437 36.8703ZM49.1112 44.5951C48.2608 43.7921 47.4057 43.2741 46.8042 42.9686L47.1361 40.912H48.5471L49.1467 44.6291C49.1348 44.6178 49.123 44.6062 49.1112 44.5951ZM48.7126 38.8277H46.942L46.39 37.5104L47.7826 36.4856L49.2004 37.529L48.7126 38.8277ZM49.3652 35.0627L52.269 32.0484C52.4094 31.9027 52.4978 31.7267 52.5369 31.5422L53.9575 32.4797L51.8215 36.8703L49.3652 35.0627ZM59.9191 47.3215V41.7402C59.9191 41.1645 59.4526 40.6981 58.877 40.6981C58.3013 40.6981 57.8349 41.1647 57.8349 41.7402V47.3215H51.6921L50.5074 39.9773L50.9445 38.8128L51.5937 39.2905C51.7744 39.4236 51.9912 39.4934 52.2113 39.4934C52.2947 39.4934 52.3783 39.4833 52.4608 39.4631C52.7611 39.3891 53.0132 39.1853 53.1483 38.9071L55.8122 33.4316L59.3495 34.9054C59.3722 34.9148 59.3952 34.9234 59.4184 34.9313C59.4633 34.9462 63.9156 36.5061 63.9156 42.0285V47.3215H59.9191Z" fill="#F8BE4D"/>
</svg>
