<svg width="58" height="60" viewBox="0 0 58 60" fill="none" xmlns="http://www.w3.org/2000/svg">
<path d="M27.996 49C25.79 49 23.996 50.794 23.996 53C23.996 55.206 25.79 57 27.996 57C30.202 57 31.996 55.206 31.996 53C31.996 50.794 30.201 49 27.996 49ZM27.996 55C26.893 55 25.996 54.103 25.996 53C25.996 51.897 26.893 51 27.996 51C29.099 51 29.996 51.897 29.996 53C29.996 54.103 29.099 55 27.996 55Z" fill="white"/>
<path d="M24.996 5H28.996C29.548 5 29.996 4.553 29.996 4C29.996 3.447 29.548 3 28.996 3H24.996C24.444 3 23.996 3.447 23.996 4C23.996 4.553 24.443 5 24.996 5Z" fill="white"/>
<path d="M31.996 5H32.996C33.548 5 33.996 4.553 33.996 4C33.996 3.447 33.548 3 32.996 3H31.996C31.444 3 30.996 3.447 30.996 4C30.996 4.553 31.443 5 31.996 5Z" fill="white"/>
<path d="M3.19899 13.342L2.94599 12.398C2.80299 11.865 2.25699 11.546 1.72099 11.691C1.18799 11.835 0.870994 12.382 1.01399 12.916L1.26699 13.86C1.38699 14.307 1.79099 14.601 2.23199 14.601C2.31699 14.601 2.40499 14.59 2.49199 14.567C3.02499 14.423 3.34199 13.875 3.19899 13.342Z" fill="white"/>
<path d="M1.106 9.86296C1.656 9.80996 2.059 9.32196 2.006 8.77296C1.998 8.69196 1.994 8.61296 1.994 8.53196C1.994 8.37996 2.009 8.22896 2.036 8.08296C2.14199 7.53996 1.786 7.01696 1.244 6.91196C0.702995 6.81296 0.177995 7.16396 0.0739951 7.70596C0.0209951 7.98096 -0.00500488 8.26096 -0.00500488 8.53396C-0.00500488 8.67596 0.00199514 8.81896 0.0159951 8.96396C0.0649951 9.47996 0.499995 9.86796 1.01 9.86796C1.042 9.86796 1.074 9.86696 1.106 9.86296Z" fill="white"/>
<path d="M5.72899 22.788L5.47599 21.843C5.33299 21.31 4.78599 20.989 4.25199 21.136C3.71799 21.279 3.40099 21.826 3.54399 22.361L3.79699 23.306C3.91699 23.752 4.31999 24.047 4.76199 24.047C4.84699 24.047 4.93399 24.036 5.02099 24.013C5.55599 23.87 5.87299 23.322 5.72899 22.788Z" fill="white"/>
<path d="M10.792 41.6799L10.539 40.7359C10.396 40.2019 9.849 39.8819 9.314 40.0289C8.781 40.1729 8.464 40.7199 8.607 41.2539L8.86 42.1979C8.98 42.6449 9.384 42.9389 9.825 42.9389C9.91 42.9389 9.998 42.9279 10.085 42.9049C10.619 42.7609 10.935 42.2129 10.792 41.6799Z" fill="white"/>
<path d="M4.46399 18.064L4.21099 17.12C4.06799 16.586 3.52099 16.266 2.98599 16.413C2.45299 16.557 2.13599 17.104 2.27899 17.638L2.53199 18.582C2.65199 19.029 3.05599 19.323 3.49699 19.323C3.58199 19.323 3.66999 19.312 3.75699 19.289C4.29099 19.146 4.60699 18.598 4.46399 18.064Z" fill="white"/>
<path d="M3.61499 6.22291C3.69999 6.22291 3.78699 6.21191 3.87399 6.18891L4.81899 5.93591C5.35199 5.79291 5.66899 5.24591 5.52599 4.71091C5.38299 4.17791 4.83699 3.85491 4.30099 4.00391L3.35599 4.25691C2.82299 4.39991 2.50599 4.94691 2.64899 5.48191C2.76899 5.92791 3.17299 6.22291 3.61499 6.22291Z" fill="white"/>
<path d="M8.338 4.95593C8.423 4.95593 8.51 4.94493 8.597 4.92193L9.541 4.66893C10.074 4.52593 10.391 3.97793 10.248 3.44393C10.105 2.90993 9.56 2.58993 9.024 2.73693L8.08 2.98993C7.547 3.13293 7.23 3.68093 7.373 4.21493C7.492 4.66093 7.896 4.95593 8.338 4.95593Z" fill="white"/>
<path d="M9.526 36.9569L9.273 36.0119C9.13 35.4789 8.582 35.1609 8.048 35.3049C7.514 35.4479 7.198 35.9959 7.341 36.5299L7.594 37.4749C7.714 37.9219 8.118 38.2159 8.559 38.2159C8.644 38.2159 8.732 38.2049 8.818 38.1819C9.353 38.0389 9.669 37.4899 9.526 36.9569Z" fill="white"/>
<path d="M6.995 27.5109L6.742 26.5669C6.599 26.0349 6.052 25.7149 5.517 25.8599C4.984 26.0029 4.667 26.5509 4.81 27.0849L5.063 28.0289C5.183 28.4749 5.586 28.7699 6.028 28.7699C6.113 28.7699 6.2 28.7589 6.287 28.7359C6.821 28.5929 7.138 28.0439 6.995 27.5109Z" fill="white"/>
<path d="M8.26099 32.2329L8.00799 31.2889C7.86499 30.7559 7.31799 30.4339 6.78299 30.5819C6.24999 30.7249 5.93299 31.2729 6.07599 31.8069L6.32899 32.7509C6.44899 33.1969 6.85199 33.4919 7.29399 33.4919C7.37899 33.4919 7.46599 33.4809 7.55299 33.4579C8.08699 33.3149 8.40399 32.7669 8.26099 32.2329Z" fill="white"/>
<path d="M55.015 16.4141C54.479 16.2681 53.933 16.5871 53.79 17.1211L53.537 18.0651C53.394 18.5981 53.71 19.1461 54.244 19.2901C54.331 19.3131 54.418 19.3241 54.504 19.3241C54.945 19.3241 55.35 19.0301 55.469 18.5831L55.722 17.6391C55.864 17.1051 55.548 16.5581 55.015 16.4141Z" fill="white"/>
<path d="M56.279 11.6901C55.742 11.5441 55.197 11.8651 55.054 12.3971L54.801 13.3411C54.658 13.8741 54.975 14.4231 55.508 14.5661C55.595 14.5891 55.682 14.6001 55.767 14.6001C56.209 14.6001 56.613 14.3051 56.732 13.8591L56.985 12.9151C57.129 12.3821 56.813 11.8331 56.279 11.6901Z" fill="white"/>
<path d="M57.926 7.70688C57.823 7.16588 57.302 6.81488 56.756 6.91288C56.214 7.01688 55.858 7.54088 55.962 8.08388C55.99 8.22988 56.005 8.38088 56.004 8.53388C56.004 8.61388 56 8.69288 55.992 8.77288C55.94 9.32288 56.343 9.81088 56.892 9.86388C56.924 9.86788 56.956 9.86888 56.988 9.86888C57.498 9.86888 57.933 9.48088 57.983 8.96488C57.997 8.81988 58.004 8.67688 58.004 8.53588C58.005 8.26088 57.979 7.98188 57.926 7.70688Z" fill="white"/>
<path d="M48.459 4.66911L49.403 4.92211C49.49 4.94511 49.577 4.95611 49.662 4.95611C50.104 4.95611 50.508 4.66111 50.627 4.21511C50.77 3.68211 50.453 3.13311 49.92 2.99011L48.976 2.73711C48.438 2.59011 47.894 2.91111 47.751 3.44411C47.609 3.97811 47.926 4.52611 48.459 4.66911Z" fill="white"/>
<path d="M53.182 5.93605L54.127 6.18905C54.214 6.21205 54.301 6.22305 54.386 6.22305C54.828 6.22305 55.232 5.92805 55.351 5.48205C55.494 4.94805 55.177 4.40005 54.644 4.25705L53.699 4.00405C53.163 3.85605 52.616 4.17805 52.474 4.71105C52.332 5.24505 52.648 5.79305 53.182 5.93605Z" fill="white"/>
<path d="M53.749 21.1371C53.214 20.9941 52.666 21.3111 52.524 21.8441L52.271 22.7881C52.128 23.3211 52.444 23.8691 52.978 24.0131C53.065 24.0361 53.152 24.0471 53.238 24.0471C53.679 24.0471 54.084 23.7531 54.203 23.3061L54.456 22.3621C54.599 21.8281 54.282 21.2801 53.749 21.1371Z" fill="white"/>
<path d="M47.421 44.751C46.889 44.609 46.339 44.924 46.196 45.458L46.005 46.17V45.998C46.005 45.981 45.996 45.967 45.995 45.95V42.135C45.996 42.118 46.005 42.104 46.005 42.087V41.109C46.005 41.092 45.996 41.078 45.995 41.061V37.246C45.996 37.229 46.005 37.215 46.005 37.198V36.22C46.005 36.203 45.996 36.189 45.995 36.172V32.357C45.996 32.34 46.005 32.326 46.005 32.309V31.331C46.005 31.314 45.996 31.3 45.995 31.283V27.468C45.996 27.451 46.005 27.437 46.005 27.42V26.442C46.005 26.425 45.996 26.411 45.995 26.394V22.579C45.996 22.562 46.005 22.548 46.005 22.531V21.55C46.005 21.533 45.996 21.519 45.995 21.502V17.687C45.996 17.67 46.005 17.656 46.005 17.639V16.66C46.005 16.643 45.996 16.629 45.995 16.612V12.798C45.996 12.781 46.005 12.767 46.005 12.75V11.771C46.005 11.754 45.996 11.74 45.995 11.723V7.908C45.996 7.891 46.005 7.877 46.005 7.86V6.881C46.005 6.864 45.996 6.85 45.995 6.833V4.405C45.996 1.977 44.02 0 41.59 0H16.401C13.972 0 11.996 1.977 11.996 4.405V6.879V6.881V7.859V7.861V11.768V11.77V12.748V12.75V16.656V16.658V17.637V17.639V21.545V21.547V22.526V22.528V26.434V26.436V27.415V27.417V31.323V31.325V32.304V32.306V36.212V36.214V37.193V37.195V41.101V41.103V42.081V42.083V45.99V45.992V46.164L11.805 45.452C11.662 44.919 11.115 44.597 10.58 44.745C10.047 44.888 9.73 45.436 9.873 45.97L10.126 46.914C10.269 47.446 10.814 47.767 11.351 47.621C11.648 47.542 11.875 47.336 11.997 47.079V49.452C11.947 49.458 11.897 49.454 11.847 49.468C11.314 49.611 10.997 50.159 11.14 50.693L11.393 51.637C11.478 51.955 11.712 52.189 11.997 52.301V55.589C11.997 58.018 13.973 59.994 16.402 59.994H41.59C44.019 59.994 45.995 58.017 45.995 55.589V52.306C46.285 52.196 46.523 51.961 46.609 51.638L46.862 50.694C47.005 50.161 46.688 49.612 46.155 49.469C46.101 49.455 46.049 49.458 45.995 49.453V47.089C45.996 47.084 45.999 47.08 45.999 47.074C46.119 47.335 46.35 47.542 46.649 47.622C47.183 47.765 47.731 47.449 47.874 46.915L48.127 45.97C48.271 45.442 47.955 44.894 47.421 44.751ZM13.996 8H43.996V46H13.996V8ZM16.401 2H41.59C42.916 2 43.995 3.079 43.995 4.405V6H13.995V4.405C13.996 3.079 15.075 2 16.401 2ZM41.59 58H16.401C15.075 58 13.996 56.921 13.996 55.595V48H43.996V55.595C43.996 56.921 42.917 58 41.59 58Z" fill="white"/>
<path d="M49.952 35.306C49.415 35.159 48.87 35.48 48.727 36.013L48.474 36.957C48.331 37.49 48.648 38.039 49.181 38.182C49.268 38.205 49.355 38.216 49.44 38.216C49.882 38.216 50.286 37.921 50.405 37.475L50.658 36.531C50.802 35.997 50.485 35.448 49.952 35.306Z" fill="white"/>
<path d="M48.687 40.0281C48.15 39.8821 47.605 40.2011 47.462 40.7351L47.209 41.6791C47.066 42.2121 47.382 42.7601 47.916 42.9041C48.003 42.9271 48.09 42.9381 48.176 42.9381C48.617 42.9381 49.022 42.6441 49.141 42.1971L49.394 41.2531C49.537 40.7201 49.22 40.1721 48.687 40.0281Z" fill="white"/>
<path d="M51.217 30.5819C50.683 30.4339 50.135 30.7559 49.993 31.2889L49.74 32.2339C49.597 32.7679 49.914 33.3159 50.448 33.4589C50.534 33.4819 50.621 33.4929 50.707 33.4929C51.149 33.4929 51.553 33.1979 51.672 32.7519L51.925 31.8069C52.067 31.2719 51.75 30.7249 51.217 30.5819Z" fill="white"/>
<path d="M52.483 25.8589C51.946 25.7139 51.401 26.0339 51.258 26.5659L51.005 27.5099C50.862 28.0429 51.179 28.5919 51.712 28.7349C51.799 28.7579 51.886 28.7689 51.971 28.7689C52.413 28.7689 52.817 28.4739 52.936 28.0279L53.189 27.0839C53.333 26.5509 53.016 26.0019 52.483 25.8589Z" fill="white"/>
</svg>
